<svg width="383" height="413" viewBox="0 0 383 413" fill="none" xmlns="http://www.w3.org/2000/svg">
                    <path fill-rule="evenodd" clip-rule="evenodd" d="M9.39053 264.353C2.92579 255.777 -0.0568203 246.717 0.00194997 235.817C0.253597 190.94 0.220066 146.055 0.186538 101.175C0.175042 85.7862 0.163547 70.3983 0.163547 55.0114C0.163547 54.0064 0.198398 52.9989 0.233264 51.991C0.283108 50.5501 0.332984 49.1082 0.281113 47.6715C0.0313387 40.6552 3.54284 36.7131 10.1692 35.2128C12.832 34.6151 15.4884 33.9952 18.1443 33.3755C23.5923 32.1042 29.0377 30.8335 34.5295 29.7557C54.0214 25.9568 73.5181 22.1895 93.0148 18.4222C121.531 12.9121 150.046 7.40209 178.546 1.79348C181.636 1.18598 184.348 0.707657 186.725 0.398311C188.019 0.0832615 189.531 -0.0362253 191.295 0.00936411C193.059 -0.0362253 194.57 0.083264 195.864 0.398313C198.242 0.707659 200.954 1.18598 204.044 1.79348C232.544 7.40208 261.059 12.9121 289.575 18.4221C309.072 22.1895 328.568 25.9568 348.06 29.7557C353.552 30.8335 358.998 32.1042 364.446 33.3754C367.101 33.9952 369.758 34.615 372.421 35.2128C379.047 36.7131 382.559 40.6552 382.309 47.6715C382.257 49.1083 382.307 50.5501 382.357 51.9911C382.392 52.999 382.426 54.0064 382.426 55.0114C382.426 70.3984 382.415 85.7864 382.403 101.175C382.37 146.056 382.336 190.94 382.588 235.817C382.647 246.717 379.664 255.777 373.199 264.353C368.225 270.951 363.428 277.682 358.632 284.412C353.485 291.634 348.339 298.855 342.977 305.906C337.349 313.32 334.749 321.277 334.881 330.427C335.116 347.578 335.278 364.714 335.351 381.865C335.409 396.826 335.269 396.858 321.729 399.982C321.451 400.046 321.168 400.111 320.879 400.178C309.075 402.906 297.075 403.613 285.077 404.32C278.511 404.707 271.946 405.093 265.415 405.811C258.252 406.599 251.109 407.581 243.964 408.563C228.817 410.646 213.663 412.73 198.299 412.96C195.597 412.998 193.281 413.022 191.295 412.972C189.309 413.022 186.992 412.998 184.291 412.96C168.927 412.73 153.773 410.646 138.626 408.563C131.481 407.581 124.338 406.599 117.175 405.811C110.643 405.093 104.079 404.707 97.513 404.32C85.5148 403.613 73.5146 402.906 61.7108 400.178C61.4218 400.111 61.1385 400.046 60.8609 399.982C47.3209 396.858 47.181 396.826 47.2386 381.865C47.3121 364.714 47.4737 347.578 47.7088 330.427C47.841 321.277 45.2404 313.32 39.6132 305.906C34.2509 298.855 29.1051 291.634 23.9578 284.411C19.1622 277.682 14.3652 270.951 9.39053 264.353Z" fill="#FFDA1D"/>
</svg>