<svg width="821" height="1498" viewBox="0 0 821 1498" fill="none" xmlns="http://www.w3.org/2000/svg">
<path d="M475.333 325.948C482.235 332.251 490.17 337.361 496.739 343.896C514.451 361.538 534.191 376.878 552.884 393.364C565.054 404.105 576.744 415.511 589.718 425.399C602.815 435.374 602.93 437.249 593.818 450.475C586.262 461.445 578.537 472.309 570.886 483.224L570.714 483.104C562.109 495.378 553.712 507.81 544.827 519.876C538.937 527.861 537.804 527.666 529.648 521.704C518.888 513.832 508.267 505.813 498.831 496.329C496.501 493.975 493.818 491.948 491.157 489.96C487.405 487.159 483.671 487.521 480.298 490.677C478.602 492.26 477.044 494.014 475.529 495.773C464.287 508.885 453.341 522.217 441.466 534.837C431.944 544.954 423.736 556.42 414.13 566.587C402.029 579.391 391.331 593.397 379.21 606.247C369.019 617.056 359.926 629.122 350.102 640.42C342.991 648.612 340.119 648.895 331.759 642.424C306.457 622.856 280.313 604.456 254.192 586.024C240.12 576.099 240.309 575.462 251.264 562.674C263.369 548.542 276.755 535.577 288.154 520.779C295.432 511.337 304.605 503.356 312.184 494.112C322.101 482.037 333.615 471.448 343.231 459.089C350.774 449.392 359.504 440.613 367.684 431.399C384.003 413.016 400.044 394.365 416.71 376.286C428.426 363.58 438.615 349.497 451.461 337.79C454.611 334.918 456.843 331.036 459.596 327.702C465.323 320.751 468.866 320.034 475.333 325.948Z" fill="#163A3A"/>
<path d="M219.162 600.022C249.681 621.415 280.245 642.742 310.695 664.233C323.514 673.28 323.483 673.796 314.307 686.903C289.487 722.346 264.642 757.773 239.813 793.21C238.671 794.84 237.539 796.489 236.334 798.087C230.721 805.571 230.229 805.628 221.641 801.172C213.062 796.721 204.984 791.45 196.731 786.446C173.712 772.508 150.456 758.942 127.264 745.286C111.208 735.839 95.7576 725.424 79.6847 716.001C68.8037 709.607 58.3435 702.543 47.0599 696.759C36.6976 691.437 27.3466 684.393 17.7725 677.755C13.6913 674.919 12.8913 671.757 15.9268 667.706C17.3215 665.838 18.5525 663.855 19.8899 661.947C48.7333 620.8 77.5825 579.644 106.44 538.494C107.777 536.586 109.106 534.673 110.509 532.811C113.135 529.326 116.548 528.813 120.223 530.766C122.851 532.156 125.278 533.955 127.726 535.671C158.256 557.048 188.77 578.449 219.288 599.842L219.162 600.022Z" fill="#163A3A"/>
<path d="M365.027 1203.35C367.892 1211.35 373.214 1214.63 381.412 1215.44C411.23 1218.39 441.006 1221.72 470.796 1224.92C507.209 1228.82 543.618 1232.76 580.027 1236.69C581.673 1236.86 583.323 1237.14 584.917 1237.55C588.455 1238.44 588.969 1240.79 587.248 1243.58C585.855 1245.83 584.142 1247.92 582.302 1249.83C563.657 1269.27 544.667 1288.38 526.421 1308.18C518.75 1316.49 510.932 1324.7 503.559 1333.28C498.315 1339.39 498.558 1342.28 505.252 1347.16C517.377 1355.97 529.778 1364.4 541.99 1373.09C550.984 1379.49 551.375 1380.7 545.058 1389.81C525.695 1417.75 506.191 1445.57 486.558 1473.32C480.134 1482.4 478.44 1482.48 468.657 1476.21C436.984 1455.89 405.384 1435.45 373.667 1415.2C339.144 1393.16 304.513 1371.3 269.941 1349.34C269.375 1348.98 268.834 1348.61 268.28 1348.23C257.997 1341.19 257.697 1339.89 265.044 1329.29C276.632 1312.59 288.361 1295.99 300.03 1279.35C309.886 1265.29 309.629 1263.91 295.472 1254.44C286.212 1248.24 283.322 1248.67 276.701 1258.01C264.368 1275.41 252.253 1292.96 239.944 1310.38C237.649 1313.62 235.009 1316.65 232.307 1319.58C230.577 1321.46 228.305 1321.93 226.027 1320.28C223.874 1318.74 223.058 1316.38 224.01 1314.12C225.285 1311.08 227.031 1308.19 228.917 1305.48C241.086 1287.96 253.349 1270.52 265.559 1253.03C267.276 1250.59 268.938 1248.07 270.436 1245.48C272.347 1242.18 271.833 1239.1 269.068 1236.44C268.352 1235.76 267.608 1235.08 266.806 1234.48C250.399 1222.13 249.902 1223.96 240.395 1237.68C229.019 1254.12 217.474 1270.45 205.991 1286.81C204.269 1289.27 202.607 1291.78 200.708 1294.09C196.237 1299.52 195.02 1299.95 188.868 1296.69C181.519 1292.78 174.223 1288.73 167.246 1284.21C152.986 1274.97 138.89 1265.48 124.863 1255.89C117.088 1250.59 116.568 1248.28 121.662 1240.42C127.464 1231.48 133.712 1222.83 139.828 1214.09C159.89 1185.43 179.991 1156.79 200.075 1128.14L199.829 1127.97C223.352 1094.41 246.866 1060.85 270.41 1027.3C272.701 1024.03 275.038 1020.78 277.473 1017.61C284.919 1007.89 286.442 1008.1 291.178 1019.85C311.851 1071.12 332.463 1122.42 353.109 1173.69C357.086 1183.58 361.455 1193.32 365.027 1203.35Z" fill="#163A3A"/>
<path d="M378.947 51.2898C384.886 55.3792 389.425 60.454 392.918 66.603C395.548 71.231 398.251 75.8245 400.702 80.5342C405.86 90.4396 412.77 98.2137 422.401 104.526C448.288 121.499 473.484 139.527 498.91 157.192C501.626 159.083 504.268 161.168 506.622 163.489C509.168 166.007 509.919 169.134 508.478 172.655C502.805 186.496 497.254 200.373 491.549 214.192C486.611 226.166 481.28 237.988 476.603 250.06C473.84 257.173 469.627 263.635 467.676 271.158C466.887 274.183 464.521 277.104 462.201 279.386C445.831 295.51 431.56 313.533 416.296 330.641C400.815 347.987 385.637 365.667 370.02 382.893C357.963 396.192 347.474 410.858 334.188 423.087C328.334 428.46 323.943 435.298 318.774 441.383C309.099 452.798 298.132 463.025 289.077 475.02C281.067 485.611 270.736 494.233 262.569 504.787C251.787 518.723 238.509 530.469 227.837 544.579C217.015 558.902 215.423 558.787 200.599 548.506C191.023 541.854 181.506 535.134 171.966 528.447L171.926 528.504C160.74 520.663 149.529 512.878 138.403 504.969C133.66 501.595 128.567 499.54 122.684 499.397C119.692 499.327 116.678 498.313 113.753 498.583C88.878 500.881 71.1921 486.408 53.0025 472.949C48.8166 469.844 47.7521 466.606 50.2899 461.888C56.1226 451.041 61.115 439.703 67.5217 429.222C80.199 408.506 91.1262 386.82 102.812 365.568C111.287 350.15 120.76 335.26 128.236 319.263C131.886 311.442 136.085 303.797 140.801 296.564C150.265 282.035 156.582 265.812 166.08 251.269C172.789 241 177.575 229.505 183.85 218.932C193.176 203.206 200.452 186.398 210.299 170.94C216.183 161.692 220.825 151.672 226.111 142.041C239.371 117.863 252.654 93.6876 265.975 69.5273C276.893 49.7525 287.858 29.998 298.84 10.2551C299.805 8.51326 300.942 6.8559 302.131 5.24688C304.215 2.3965 306.934 1.7749 309.995 3.50548C312.32 4.80549 314.569 6.24807 316.748 7.77491C337.476 22.2807 358.115 36.9314 378.947 51.2898Z" fill="#163A3A"/>
<path d="M812.027 693.243C818.669 698.228 818.922 699.957 814.393 707.272C813.522 708.689 812.539 710.039 811.58 711.406L755.937 790.786C755.173 791.876 754.412 792.979 753.608 794.039C747.757 801.759 745.995 802.234 738.082 796.919C728.132 790.225 718.435 783.171 708.548 776.387C699.136 769.936 697.634 770.214 690.974 779.663C676.21 800.638 661.52 821.664 646.791 842.676C632.625 862.85 618.476 883.034 604.327 903.219C602.99 905.127 601.696 907.078 600.252 908.911C595.446 915.019 593.768 915.357 588.427 910.013C581.138 902.73 574.158 895.126 567.135 887.566C550.623 869.763 534.372 851.727 517.55 834.209C504.429 820.541 492.204 806.012 479.352 792.081C464.684 776.194 449.684 760.624 434.96 744.783C414.363 722.615 393.858 700.352 373.378 678.07C365.984 670.029 366.264 668.932 373.614 660.834C380.765 652.95 387.715 644.865 394.365 636.545C404.567 623.802 415.485 611.624 426.409 599.595C442.745 581.603 457.353 562.106 474.689 545.022C477.515 542.228 479.755 538.84 482.378 535.83C487.21 530.278 489.171 529.833 494.893 534.247C504.65 541.758 514.371 549.318 523.627 557.491C538.096 570.247 552.872 582.668 567.678 595.049C584.009 608.72 601.223 621.324 616.743 635.977C625.505 644.244 627.344 644.373 637.349 637.574C647.791 630.483 658.064 623.127 668.294 615.729C676.537 609.771 679.733 609.252 687.257 613.989C725.85 638.306 764.401 662.667 802.953 687.041C806.054 688.994 809.093 691.052 812.027 693.243Z" fill="#163A3A"/>
<path d="M355.257 704.251C361.646 711.966 368.836 718.886 375.622 726.208C396.424 748.642 417.316 770.98 438.08 793.449C456.815 813.726 475.351 834.181 494.112 854.439C513.984 875.916 534.051 897.2 553.937 918.675C560.034 925.256 565.691 932.238 571.733 938.88C575.036 942.514 574.74 945.811 572.033 949.568C566.766 956.855 561.813 964.373 556.481 971.614C551.931 977.792 550.665 978.065 544.266 973.726C532.968 966.063 521.869 958.099 510.683 950.258L510.632 950.332C499.995 942.876 489.43 935.299 478.69 927.99C470.576 922.474 468.142 923.002 462.072 930.703C450.173 945.797 450.18 946.083 466.148 957.362C483.831 969.855 501.59 982.255 519.301 994.706C521.752 996.437 524.257 998.107 526.542 1000.04C531.994 1004.67 532.249 1005.83 528.395 1011.68C524.178 1018.08 519.555 1024.21 515.313 1030.59C511.147 1036.86 511.479 1039.4 517.364 1044.09C522.586 1048.23 528.082 1052.01 533.541 1055.82C575.02 1084.87 616.513 1113.88 657.997 1142.93C672.259 1152.91 672.612 1153.45 661.408 1166.09C650.386 1178.54 638.541 1190.26 627.144 1202.38C621.949 1207.91 616.041 1209.5 608.354 1208.66C540.862 1201.2 473.351 1193.92 405.802 1187.11C395.138 1186.03 389.462 1181.85 385.487 1171.77C359.432 1105.86 332.35 1040.34 306.531 974.337C295.152 945.221 285.965 915.261 275.782 885.677C270.26 869.618 264.941 853.494 259.155 837.532C256.512 830.257 257.582 824.62 262.225 818.153C287.296 783.24 311.819 747.942 336.539 712.782C338.464 710.053 340.314 707.258 342.478 704.745C347.691 698.667 350.348 698.343 355.257 704.251Z" fill="#163A3A"/>
</svg>
