<svg width="698" height="624" viewBox="0 0 698 624" fill="none" xmlns="http://www.w3.org/2000/svg">
<mask id="mask0_216_53" style="mask-type:alpha" maskUnits="userSpaceOnUse" x="0" y="0" width="698" height="624">
<path fill-rule="evenodd" clip-rule="evenodd" d="M525.701 350.461C560.221 307.366 594.679 264.232 629.052 221.058C635.208 213.315 635.036 211.913 625.848 206.918C605.706 195.989 585.501 185.125 564.933 174.847C558.914 171.836 553.147 168.479 547.384 165.124C540.583 161.164 533.786 157.207 526.588 153.826C511.844 146.896 497.649 139.157 483.453 131.417C471.442 124.868 459.431 118.32 447.087 112.261C436.452 107.033 425.818 101.69 415.835 95.5797C397.104 84.1255 377.399 74.0684 357.713 64.0209C351.666 60.935 345.622 57.8499 339.608 54.7256C329.983 49.7261 320.413 44.6414 310.841 39.556C289.427 28.1782 268.005 16.7965 245.94 6.3559C243.59 5.24481 241.611 4.17208 239.881 3.23432C231.008 -1.57459 228.684 -2.83416 216.523 12.4842C195.381 39.1124 174.176 65.7071 152.971 92.3003C143.885 103.696 134.799 115.091 125.718 126.489L126.018 126.674C118.24 136.436 110.461 146.198 102.682 155.959C79.358 185.227 56.0356 214.494 32.7395 243.783C23.4984 255.398 23.9784 256.678 37.132 264.489C51.1389 272.8 65.3095 280.893 79.4803 288.986C101.411 301.511 123.341 314.036 144.666 327.371C155.829 334.346 167.274 340.984 178.71 347.618L179.437 348.039C183.444 350.364 187.63 352.455 191.81 354.542C192.932 355.102 194.054 355.662 195.171 356.227C200.149 358.73 205.192 358.657 208.715 354.533C212.445 350.154 216.987 346.522 221.53 342.889C224.661 340.384 227.793 337.88 230.66 335.129C238.481 327.628 246.766 320.496 255.049 313.365C257.516 311.242 259.983 309.118 262.437 306.985C268.137 302.031 273.869 297.109 279.6 292.188C285.906 286.773 292.212 281.359 298.475 275.902C305.477 269.809 312.408 263.649 319.34 257.487C322.218 254.929 325.096 252.371 327.98 249.817C331.588 246.626 335.485 246.506 339.622 248.942C341.708 250.17 343.788 251.407 345.843 252.674C358.382 260.407 370.919 268.144 383.456 275.881C404.399 288.805 425.343 301.73 446.295 314.637C450.355 317.137 454.414 319.638 458.472 322.139C475.275 332.497 492.075 342.851 508.99 353.06C517.493 358.188 519.851 357.755 525.701 350.461ZM672.405 270.982C669.502 263.237 666.6 255.497 663.407 247.845C660.508 240.884 657.872 240.577 652.535 246.417C648.271 251.091 644.433 256.074 640.634 261.057C624.927 281.619 608.003 301.41 591.079 321.202C573.069 342.264 555.057 363.328 538.508 385.324C527.88 399.44 527.418 399.26 511.929 389.707C489.507 375.884 467.088 362.056 444.669 348.228C414.783 329.795 384.898 311.362 355.004 292.939C351.193 290.589 347.269 288.365 343.273 286.248C339.05 284.003 334.885 284.443 331.48 287.528C324.671 293.702 317.662 299.693 310.653 305.684C307.903 308.036 305.152 310.387 302.414 312.749C291.726 321.952 281.25 331.344 270.773 340.736C263.708 347.07 256.642 353.404 249.512 359.681C244.079 364.462 238.542 369.152 233.005 373.841C227.187 378.768 221.368 383.696 215.673 388.729C206.617 396.743 205.829 397.056 194.984 390.657C175.609 379.229 155.871 368.306 136.077 357.452C127.374 352.679 123.852 350.464 120.531 350.734C117.118 351.011 113.918 353.914 105.524 359.361C84.8672 372.778 64.5198 386.558 44.1733 400.337C33.3153 407.69 22.4575 415.043 11.5531 422.341C-3.92425 432.702 -4.03304 433.087 12.3292 443.178C45.6908 463.778 79.0682 484.358 112.446 504.938C125.795 513.168 139.144 521.399 152.492 529.631L152.479 529.647C165.459 537.651 178.436 545.658 191.414 553.664C226.036 575.023 260.658 596.383 295.307 617.709C308.7 625.946 309.475 625.799 318.959 613.928C340.948 586.363 362.918 558.791 384.889 531.218C395.886 517.417 406.883 503.616 417.883 489.816C418.416 489.152 418.94 488.482 419.465 487.813C420.775 486.139 422.086 484.466 423.521 482.888C428.93 476.941 431.546 476.564 438.997 480.569C440.872 481.583 442.668 482.705 444.461 483.826C445.007 484.167 445.553 484.508 446.1 484.846C455.11 490.399 464.116 495.957 473.122 501.515C491.145 512.638 509.169 523.761 527.225 534.843C541.118 543.376 542.299 543.248 551.767 531.183C557.793 523.505 563.726 515.775 569.659 508.045C576.581 499.028 583.502 490.01 590.57 481.077C624.805 437.794 659.135 394.558 693.667 351.447C698.006 346.033 699.239 341.25 696.669 334.85C691.425 321.78 686.506 308.608 681.586 295.433C679.455 289.724 677.323 284.014 675.164 278.313C674.238 275.87 673.322 273.426 672.405 270.982Z" fill="#163A3A"/>
</mask>
<g mask="url(#mask0_216_53)">
<path d="M-309 -232H736V1518.69H-309V-232Z" fill="#D9D9D9"/>
</g>
</svg>
