<svg width="393" height="852" viewBox="0 0 393 852" fill="none" xmlns="http://www.w3.org/2000/svg">
<path d="M-604.518 979.728C-614.113 951.051 -622.453 921.799 -631.198 892.702C-647.374 838.8 -662.822 784.572 -679.939 731.136C-685.792 712.88 -682.377 698.462 -671.238 681.423C-582.602 545.746 -494.457 409.749 -406.541 273.638C-372.832 221.463 -340.351 168.558 -306.813 116.272C-282.491 78.3484 -279.565 77.6809 -245.907 99.459C-180.308 141.866 -114.899 184.565 -49.3943 227.118C-43.7108 230.813 -38.1171 234.693 -32.1797 237.998C-14.0846 247.991 -7.5937 246.236 6.22673 227.364C11.3631 220.352 15.9061 212.85 20.6896 205.539C105.35 75.3702 189.951 -54.8029 274.654 -184.944C299 -222.296 300.925 -222.92 333.37 -201.896C448.765 -127.045 564.032 -51.9994 679.348 22.9731L679.316 23.022C792.494 96.6053 905.705 170.14 1018.84 243.796C1058.47 269.565 1058.17 270.726 1019.14 305.094C940.107 374.661 861.991 445.484 782.145 513.966C740.407 549.736 749.373 551.328 706.527 527.084C658.476 499.907 610.567 472.511 563.594 443.534C537.301 427.308 535.33 428.423 512.341 454.291C484.125 486.001 454.786 516.633 426.506 548.301C381.566 598.628 337.594 649.897 292.199 699.755C267.548 726.87 242.533 753.609 218.449 781.302C209.8 791.239 199.476 793.559 189.22 787.967C179.513 782.699 169.992 777.099 160.761 771.098C34.0258 688.77 -92.6464 606.344 -219.366 523.992C-256.885 499.598 -258.011 499.179 -285.357 543.438C-367.951 677.208 -463.869 801.969 -547.243 935.163C-557.013 950.798 -566.879 966.441 -577.771 981.278C-591.407 999.819 -597.896 999.56 -604.518 979.728Z" fill="#FFDA1D"/>
</svg>
