<svg width="100" height="100" viewBox="0 0 100 100" fill="none" xmlns="http://www.w3.org/2000/svg">
<g clip-path="url(#clip0_334_46)">
<path d="M50 100C77.6142 100 100 77.6142 100 50C100 22.3858 77.6142 0 50 0C22.3858 0 0 22.3858 0 50C0 77.6142 22.3858 100 50 100Z" fill="#FFDA1D"/>
<path d="M48.4536 4.74231C37.9898 5.10386 27.9732 9.07407 20.1031 15.9794H34.0206L48.4536 8.55674V4.74231ZM51.5464 4.74231V8.55674L65.9794 15.9794H79.8969C72.0268 9.07407 62.0102 5.10386 51.5464 4.74231ZM16.9072 19.0722C12.1755 24.0885 8.64969 30.1176 6.59792 36.7011L14.8453 50.9279L26.701 49.0722L37.5258 30.4124L33.1959 19.0722H16.9072ZM66.8041 19.0722L62.4742 30.4124L73.299 49.0722L85.1546 50.9279L93.299 36.8042C91.2916 30.1934 87.8008 24.1285 83.0928 19.0722H66.8041ZM41.0309 32.4743L30.6185 50.6186L39.7938 66.4949H60.2062L69.3814 50.6186L58.9691 32.4743H41.0309ZM5.567 41.031C4.9606 43.9824 4.64978 46.987 4.63916 50C4.64762 57.4456 6.48872 64.7746 9.99998 71.3402L13.8144 69.0722L13.0928 54.1238L5.567 41.031ZM94.433 41.1341L86.9072 54.1238L86.1856 69.0722L90 71.3402C93.5113 64.7746 95.3524 57.4456 95.3608 50C95.3434 47.0214 95.0326 44.0518 94.433 41.1341ZM39.7938 70.6186L31.8557 80.4124L39.7938 94.1238C43.138 94.9216 46.562 95.3366 50 95.3609C53.4379 95.3366 56.862 94.9216 60.2062 94.1238L68.1443 80.4124L60.2062 70.6186H39.7938ZM15.1546 71.9588L11.5464 74.0207C17.088 82.917 25.5393 89.6198 35.4639 92.9897L28.2474 80.3093L15.1546 71.9588ZM84.8454 71.9588L71.7526 80.3093L64.5361 92.8866C74.445 89.5431 82.8942 82.8784 88.4536 74.0207L84.8454 71.9588Z" fill="#051A1A"/>
</g>
<defs>
<clipPath id="clip0_334_46">
<rect width="100" height="100" fill="white"/>
</clipPath>
</defs>
</svg>
