<svg width="691" height="376" viewBox="0 0 691 376" fill="none" xmlns="http://www.w3.org/2000/svg">
<path d="M684.891 143.32C662.595 190.92 666.685 172.221 666.607 226.409C666.556 258 667.439 289.577 667.841 321.168C667.893 325.482 667.737 329.823 667.439 334.124C667.023 340.05 663.816 343.558 657.972 344.858C638.585 349.159 619.236 353.603 599.849 357.918C575.839 363.258 551.764 368.339 527.818 373.914C520.897 375.526 514.054 376.136 507.275 374.629C486.511 370.003 465.241 369.782 444.269 367.053C398.444 361.075 352.449 356.436 306.519 351.342C276.055 347.964 245.539 344.637 215.101 341.063C193.701 338.555 172.028 338.1 150.823 333.396C141.201 331.252 131.085 331.031 121.177 330.55C100.01 329.55 79.3375 323.923 58.0672 323.949C51.99 323.962 46.1075 322.364 40.1602 321.246C32.8753 319.869 30.0055 315.84 30.0574 308.68C30.2133 289.642 30.1094 270.605 30.1094 251.554H29.8756C29.8756 235.116 29.7068 218.664 29.9406 202.226C30.0704 192.87 27.9668 184.449 23.0842 176.34C16.3837 165.242 10.4363 153.69 4.22925 142.294C2.99563 140.032 1.24259 137.693 1.03482 135.289C-0.54941 117.161 -0.00401476 98.9945 0.632276 80.8407C0.775116 76.8382 3.43714 74.6681 7.17697 73.8494C9.70914 73.3036 12.2803 72.7969 14.8514 72.615C38.1215 70.8866 61.0928 66.6763 84.4278 65.1169C101.153 63.9863 117.775 60.4257 134.578 59.4381C157.458 58.1126 179.936 53.3306 202.869 52.239C219.217 51.4593 235.423 47.8597 251.772 46.7291C275.042 45.1048 297.936 40.3356 321.297 39.2961C337.23 38.5943 353.02 35.1897 368.953 33.9941C393.068 32.1618 416.844 27.5617 441.036 26.3402C455.255 25.6254 469.37 23.0394 483.538 21.48C516.144 17.8805 548.816 14.8137 581.371 10.7333C605.355 7.71848 629.56 6.7049 653.414 2.42958C662.309 0.844206 671.516 1.1171 680.567 0.441367C687.06 -0.039444 690.28 2.97535 690.618 9.35584C690.709 11.0842 690.929 12.8125 690.929 14.5408C690.955 50.0168 690.903 85.5058 690.981 120.995C690.994 129.052 688.215 136.225 684.891 143.32Z" fill="#3DBAE1"/>
</svg>
