<svg width="564" height="379" viewBox="0 0 564 379" fill="none" xmlns="http://www.w3.org/2000/svg">
<path d="M559.838 234.222C527.929 279.778 495.94 325.291 463.894 370.763C458.462 378.46 456.274 378.916 448.38 373.505C428.884 360.132 409.555 346.522 390.178 332.963C359.083 311.19 328.008 289.371 296.924 267.582C295.016 266.245 293.085 264.94 291.149 263.644C287.308 261.074 283.69 261.2 280.341 264.567C271.215 273.753 262.149 282.993 252.951 292.091C241.852 303.081 230.61 313.91 219.495 324.888C209.566 334.696 199.418 344.313 189.995 354.585C183.47 361.698 175.472 367.254 169.622 375.06C166.352 379.411 161.67 379.488 157.049 376.847C152.146 374.033 147.16 371.319 142.442 368.207C131.601 361.06 120.746 353.915 110.163 346.399C77.5743 323.237 43.4612 302.39 10.3346 280.048C-1.87635 271.806 -2.32192 270.456 6.25691 258.2C35.0963 216.989 63.9791 175.82 92.8512 134.631L92.5728 134.436C120.676 94.345 148.834 54.28 176.871 14.1429C190.362 -5.1723 190.812 0.492212 204.18 7.67661C233.819 23.617 262.208 41.6366 291.135 58.7144C314.896 72.7446 339.171 86.0238 361.9 101.822C371.168 108.27 381.04 113.908 390.913 119.423C415.915 133.372 439.449 149.782 464.717 163.282C477.061 169.871 488.133 178.536 500.314 185.462C519.408 196.306 538.166 207.77 556.864 219.301C565.393 224.572 565.553 226.052 559.838 234.222Z" fill="#163A3A"/>
</svg>
